<svg id="Group_32" data-name="Group 32" xmlns="http://www.w3.org/2000/svg" xmlns:xlink="http://www.w3.org/1999/xlink" width="43.494" height="43.494" viewBox="0 0 43.494 43.494">
  <defs>
    <clipPath id="clip-path">
      <rect id="Rectangle_576" data-name="Rectangle 576" width="43.494" height="43.494" fill="none"/>
    </clipPath>
  </defs>
  <g id="Group_31" data-name="Group 31" transform="translate(0 0)" clip-path="url(#clip-path)">
    <path id="Path_1163" data-name="Path 1163" d="M21.748,0A21.746,21.746,0,1,0,43.494,21.746,21.746,21.746,0,0,0,21.748,0M34.5,26.806a7.667,7.667,0,0,1-7.658,7.658H16.657A7.667,7.667,0,0,1,9,26.806V16.625a7.667,7.667,0,0,1,7.658-7.658H26.838A7.667,7.667,0,0,1,34.5,16.625Zm-7.658-15.44H16.657A5.265,5.265,0,0,0,11.4,16.625V26.806a5.265,5.265,0,0,0,5.259,5.259H26.838A5.265,5.265,0,0,0,32.1,26.806V16.625a5.265,5.265,0,0,0-5.259-5.259M21.852,27.994a6.279,6.279,0,1,1,6.28-6.279,6.287,6.287,0,0,1-6.28,6.279M28.5,16.509a1.495,1.495,0,1,1,1.495-1.495A1.495,1.495,0,0,1,28.5,16.509m-6.645,1.184a4.022,4.022,0,1,0,4.022,4.022,4.026,4.026,0,0,0-4.022-4.022" transform="translate(0 0)" fill="#374194"/>
  </g>
</svg>
