<svg id="Group_28" data-name="Group 28" xmlns="http://www.w3.org/2000/svg" xmlns:xlink="http://www.w3.org/1999/xlink" width="43.494" height="43.494" viewBox="0 0 43.494 43.494">
  <defs>
    <clipPath id="clip-path">
      <rect id="Rectangle_574" data-name="Rectangle 574" width="43.494" height="43.494" fill="none"/>
    </clipPath>
  </defs>
  <g id="Group_27" data-name="Group 27" transform="translate(0 0)" clip-path="url(#clip-path)">
    <path id="Path_1161" data-name="Path 1161" d="M21.746,0A21.747,21.747,0,1,0,43.493,21.747,21.747,21.747,0,0,0,21.746,0M32.08,17.32c-.207.057-.412.113-.619.168-.446.12-.894.238-1.34.358l-.068.015c-.08-.25-.158-.5-.244-.751a8.678,8.678,0,0,0-.525-1.221,7.55,7.55,0,0,0-1-1.481A6.886,6.886,0,0,0,27.1,13.334a7.188,7.188,0,0,0-1.621-.863,8.462,8.462,0,0,0-1.389-.4c-.171-.031-.341-.064-.513-.089-.14-.021-.281-.033-.422-.048s-.3-.033-.46-.048c-.062-.006-.125-.007-.189-.01l-.231-.01h-.036c-.231,0-.463,0-.695,0-.18,0-.363.018-.543.033-.2.016-.394.033-.587.064-.3.046-.595.1-.888.162a7.5,7.5,0,0,0-1.96.72,6.576,6.576,0,0,0-1.252.876,6.861,6.861,0,0,0-1.27,1.517,8.82,8.82,0,0,0-.666,1.324,10.526,10.526,0,0,0-.477,1.51,11.574,11.574,0,0,0-.245,1.331c-.039.318-.071.638-.1.958-.018.181-.031.364-.036.547-.01.416-.019.834-.022,1.252,0,.187.009.373.024.561.027.339.051.678.094,1.014.046.372.106.742.17,1.111a10.494,10.494,0,0,0,.345,1.374,9.16,9.16,0,0,0,.656,1.569,7.445,7.445,0,0,0,.861,1.284,6.557,6.557,0,0,0,2.186,1.7,7.254,7.254,0,0,0,1.343.5c.2.052.4.107.595.147s.387.068.582.1c.217.03.436.057.654.08.11.01.222.01.333.013.158.006.317.013.474.015.186,0,.372,0,.556,0,.25-.012.5-.021.748-.049a9.469,9.469,0,0,0,1.551-.275,6.447,6.447,0,0,0,3.094-1.874,4.463,4.463,0,0,0,1.05-1.834,3.632,3.632,0,0,0,.1-.454c.028-.174.045-.351.059-.527a2.232,2.232,0,0,0,.013-.345c-.015-.214-.034-.428-.068-.641a3.446,3.446,0,0,0-.341-1.043,3.487,3.487,0,0,0-.9-1.11c-.171-.141-.358-.263-.538-.394-.016-.01-.036-.019-.057-.033-.021.141-.039.277-.062.41-.028.152-.061.3-.1.452s-.068.292-.11.436a6.212,6.212,0,0,1-.5,1.229,4.93,4.93,0,0,1-.885,1.179,4.441,4.441,0,0,1-.925.686,4.792,4.792,0,0,1-1.171.455c-.184.045-.375.076-.564.106a4.678,4.678,0,0,1-.477.049c-.241.01-.482.019-.723.009-.205-.009-.411-.042-.616-.068a2.319,2.319,0,0,1-.335-.059c-.248-.071-.5-.144-.739-.235a4.146,4.146,0,0,1-1.117-.625,3.623,3.623,0,0,1-1.3-1.868,6.651,6.651,0,0,1-.141-.668,3.715,3.715,0,0,1-.022-.75,2.883,2.883,0,0,1,.064-.463,3.624,3.624,0,0,1,1.184-2.066,4.854,4.854,0,0,1,1.786-.985,5.935,5.935,0,0,1,1.111-.247c.21-.025.421-.04.632-.058a12,12,0,0,1,1.349-.022c.2.007.4.019.6.036s.369.036.552.057c.147.018.293.042.448.064-.009-.052-.013-.1-.027-.152-.065-.241-.12-.486-.2-.721a2.6,2.6,0,0,0-.643-1.026,2.4,2.4,0,0,0-.968-.565c-.15-.046-.3-.082-.46-.113a2.984,2.984,0,0,0-.345-.037c-.192-.01-.384-.025-.577-.022a3.624,3.624,0,0,0-.656.079,3.226,3.226,0,0,0-.759.253,2.766,2.766,0,0,0-1.077.941l-.03.042c-.576-.4-1.147-.788-1.728-1.185.1-.129.187-.26.286-.384A4.758,4.758,0,0,1,19,16.148a4.969,4.969,0,0,1,.855-.434,5.219,5.219,0,0,1,1.068-.3,4.468,4.468,0,0,1,.469-.052c.248-.015.5-.031.747-.024s.527.043.79.07c.106.01.211.027.315.048a4.975,4.975,0,0,1,1.45.532,4.311,4.311,0,0,1,1.2,1,4.622,4.622,0,0,1,.708,1.166,7.1,7.1,0,0,1,.247.671c.065.217.116.44.161.663s.076.443.1.666c.019.143.025.29.037.436,0,.04.012.082.018.126a7.488,7.488,0,0,1,1.3.709,6.035,6.035,0,0,1,1.635,1.633,5.386,5.386,0,0,1,.589,1.169,5.776,5.776,0,0,1,.25.9c.033.171.058.345.074.521s.03.382.036.574c.007.165.01.332,0,.5-.01.192-.037.382-.058.574a5.621,5.621,0,0,1-.314,1.284,6.375,6.375,0,0,1-.387.861,6.851,6.851,0,0,1-1.02,1.426,8.9,8.9,0,0,1-1.434,1.249,8.236,8.236,0,0,1-1.211.7,8.724,8.724,0,0,1-1.15.44,9.487,9.487,0,0,1-1.148.277c-.173.03-.347.058-.521.082s-.358.042-.538.058c-.143.015-.287.027-.43.037s-.289.015-.434.022c-.006,0-.013.007-.021.012h-.933c-.009,0-.018-.01-.027-.01-.119-.006-.236-.006-.354-.013-.174-.013-.347-.031-.519-.048-.12-.01-.242-.018-.363-.036-.162-.021-.323-.052-.485-.079a11.884,11.884,0,0,1-1.362-.312c-.174-.051-.347-.107-.516-.17s-.326-.128-.486-.2c-.232-.107-.464-.211-.69-.329a8.228,8.228,0,0,1-1.429-.944,9.07,9.07,0,0,1-1.135-1.12,10.252,10.252,0,0,1-1.13-1.661c-.092-.164-.17-.336-.25-.507a11.859,11.859,0,0,1-.77-2.171c-.07-.281-.131-.565-.193-.849-.022-.106-.04-.213-.059-.318s-.042-.214-.058-.323c-.03-.207-.054-.415-.082-.623-.012-.091-.025-.183-.034-.275s-.016-.195-.025-.293c-.01-.134-.024-.269-.033-.4-.006-.083-.007-.167-.012-.248-.007-.153-.018-.306-.024-.46,0-.131,0-.26-.006-.39v-.283c0-.055,0-.11,0-.164l0-.018c.006-.213.01-.425.018-.637,0-.141.013-.28.024-.419s.021-.3.034-.445c.01-.119.021-.239.034-.358.019-.171.042-.344.067-.515.028-.2.061-.4.094-.6.025-.146.054-.29.08-.434a13.077,13.077,0,0,1,.357-1.407,11.024,11.024,0,0,1,.956-2.229q.207-.359.44-.7a8.791,8.791,0,0,1,1.273-1.5,8.6,8.6,0,0,1,1.821-1.3,9.744,9.744,0,0,1,2.393-.891,10.127,10.127,0,0,1,1.2-.21c.253-.027.5-.057.757-.079.177-.016.354-.019.531-.028a.313.313,0,0,0,.036-.009h.781a.773.773,0,0,0,.115.021c.15.01.3.016.449.025s.3.021.454.036c.183.018.366.033.547.062.284.046.568.094.849.156s.586.144.875.231c.229.068.452.155.677.238a8.08,8.08,0,0,1,1.065.486,8.983,8.983,0,0,1,3.355,3.164c.162.266.33.532.469.811.181.366.35.739.5,1.118.134.344.234.7.351,1.053.018.058.045.113.067.17Zm-7.606,4.849c-.11-.019-.222-.031-.333-.043s-.225-.025-.336-.033c-.192-.012-.384-.027-.576-.031a9.091,9.091,0,0,0-1.273.036c-.205.024-.411.055-.614.091a3.265,3.265,0,0,0-.956.333,2.142,2.142,0,0,0-.583.446,1.631,1.631,0,0,0-.439,1.11,1.654,1.654,0,0,0,.022.257,1.443,1.443,0,0,0,.189.55,1.816,1.816,0,0,0,.611.614,2.852,2.852,0,0,0,1.049.385,2.732,2.732,0,0,0,.393.052c.226,0,.451,0,.675-.021a3.793,3.793,0,0,0,.521-.082,2.406,2.406,0,0,0,1.53-1.056,4.438,4.438,0,0,0,.623-1.755c.031-.19.046-.382.07-.571.006-.055.013-.109.021-.167a.811.811,0,0,0-.091-.021c-.168-.033-.335-.067-.5-.1" transform="translate(0 0)" fill="#374194"/>
  </g>
</svg>
