<?xml version="1.0" encoding="UTF-8"?>
<svg id="Layer_1" xmlns="http://www.w3.org/2000/svg" xmlns:xlink="http://www.w3.org/1999/xlink" version="1.1" viewBox="0 0 309.2 69.5">
  <!-- Generator: Adobe Illustrator 29.2.1, SVG Export Plug-In . SVG Version: 2.1.0 Build 116)  -->
  <defs>
    <style>
      .st0 {
        fill: #053088;
      }

      .st1 {
        fill: #e50019;
      }

      .st2 {
        fill: #fff;
      }
    </style>
  </defs>
  <g id="Group_4">
    <path id="Path_1-2" class="st0" d="M295.3,69.5H13.9C6.2,69.5,0,63.3,0,55.6V13.9C0,6.2,6.2,0,13.9,0h281.5c7.7,0,13.9,6.2,13.9,13.9h0v41.8c0,7.7-6.2,13.9-13.9,13.9h0"/>
    <path id="Path_2" class="st2" d="M29.4,45.3h-12.1v-1.6c.8,0,1.6,0,2.3-.3.5-.2.8-.6.9-1.1.1-.8.2-1.6.2-2.3v-13.4c0-.8,0-1.5-.2-2.3-.1-.5-.4-.9-.9-1.1-.7-.3-1.5-.4-2.3-.3v-1.6h12.2v1.6c-.8,0-1.6,0-2.3.3-.5.2-.8.7-.9,1.2-.1.7-.2,1.5-.2,2.2v13.4c0,.8,0,1.6.2,2.3,0,.5.4.9.9,1.1.7.2,1.5.3,2.2.3v1.6Z"/>
    <path id="Path_3" class="st2" d="M43.5,45.3h-10.3v-1.5c.6,0,1.2,0,1.7-.2.3-.1.6-.5.7-.8,0-.5.1-1,.1-1.6v-9.4c0-.5,0-1-.4-1.3-.3-.2-.7-.3-1.1-.3-.3,0-.7,0-1,0v-1.5l5.6-1.1h2v4.4c.1,0,.1,9,.1,9,0,.5,0,1,.2,1.6,0,.4.3.7.7.8.6.2,1.2.3,1.7.2v1.5ZM55.1,45.3h-10.1v-1.5c.5,0,1.1,0,1.6-.2.3-.1.6-.4.7-.8.1-.5.2-1.1.1-1.6v-5.7c0-.9,0-1.8-.3-2.7-.2-.6-.5-1-1-1.3-.5-.3-1.1-.4-1.6-.4-.5,0-1,0-1.5.3-.4.2-.9.4-1.2.7-.4.3-.8.6-1.2.9l-.2-2.3h.7c.8-.8,1.7-1.6,2.7-2.2.9-.6,1.9-.9,2.9-.9,1.7,0,3.3.5,4.5,1.7,1.1,1.2,1.6,2.9,1.6,5.4v6.5c0,.5,0,1.1.2,1.6.1.4.4.7.7.8.5.2,1.1.3,1.6.2v1.5Z"/>
    <path id="Path_4" class="st2" d="M58,53.8c-1.2,0-2.4-.2-3.5-.8-1-.5-1.5-1.5-1.5-2.6,0-1,.7-1.9,1.8-2,0,0,.1,0,.2,0,.5,0,1.1.2,1.5.5.3.3.6.7.8,1.2.2.4.4.8.7,1.2.2.3.6.5,1,.5.8,0,1.2-.4,1.4-1.3.2-1.4.2-2.9.2-4.3v-14c0-.6,0-1.1-.4-1.6-.4-.3-.8-.4-1.3-.4-.3,0-.7,0-1.1,0v-1.5l5.4-1h2.6v17.6c0,1.7-.3,3.3-1,4.8-.6,1.2-1.6,2.2-2.8,2.8-1.2.6-2.5.9-3.9.9M63.1,25.4c-.8,0-1.6-.2-2.1-.8-.5-.5-.8-1.3-.8-2.1,0-.8.2-1.5.8-2.1.6-.5,1.4-.8,2.2-.8.8,0,1.6.2,2.2.8.5.6.8,1.3.7,2,0,.8-.2,1.5-.7,2.1-.6.6-1.4.8-2.2.8"/>
    <path id="Path_5" class="st2" d="M78.4,45.6c-1.5.1-3-.4-4.1-1.4-.9-.9-1.3-2.6-1.3-5v-7c0-.5,0-1.1-.2-1.6-.1-.3-.4-.6-.8-.6-.5,0-1-.1-1.5-.1v-1.5l6-.5h1.7v10.3c0,.9,0,1.7.3,2.5.1.5.5.9.9,1.1.4.2.9.3,1.3.3.7,0,1.3-.1,1.9-.4.6-.4,1.2-.8,1.8-1.2v-8.4c0-.5,0-1.1-.3-1.5-.2-.3-.6-.5-.9-.6-.6,0-1.3-.1-1.9-.1v-1.5l6.8-.5h1.5v12.5c0,.8,0,1.6.5,2.2.6.4,1.3.6,2,.5h.2v1.3l-6.3,1.1h-1.4v-3.2h-.2c-.6.7-1.3,1.4-2.1,2-.6.5-1.2.8-1.9,1-.7.2-1.4.3-2.2.3"/>
    <path id="Path_6" class="st2" d="M106.6,45.3h-11.4v-1.5c.6,0,1.2,0,1.8-.2.4-.1.6-.4.7-.7.1-.5.2-1,.2-1.6v-8.9c0-.5,0-1-.3-1.5-.3-.4-.8-.6-1.2-.5-.4,0-.8,0-1.1,0v-1.6l5.7-1.1h2.1v3.8h.1c.7-.9,1.2-1.6,1.6-2.2.4-.5.8-1,1.3-1.4.6-.3,1.2-.5,1.8-.5.8,0,1.6.2,2.1.8.5.6.7,1.4.7,2.2,0,.8-.2,1.6-.7,2.3-.4.4-.9.7-1.5.7-.5,0-1-.1-1.4-.4-.3-.2-.7-.5-1-.8-.2-.2-.4-.3-.7-.4-.4,0-.8.2-1.2.5-.4.3-.9.7-1.2,1.2v7.5c0,.6,0,1.2.3,1.8.2.4.7.7,1.1.8.7.2,1.4.2,2.1.2v1.5Z"/>
    <path id="Path_7" class="st2" d="M121.3,45.7c-1.6,0-3.1-.3-4.5-1-1.2-.7-2.2-1.7-2.8-3-.7-1.5-1-3.2-1-4.9,0-1.8.3-3.6,1.2-5.2.7-1.3,1.8-2.3,3.2-3,1.4-.7,2.8-1,4.4-1,2.1,0,4.1.7,5.6,2.1,1.4,1.4,2.1,3.5,2.1,6.2h-11.5v-1.7s5.8,0,5.8,0c0-.9,0-1.8-.2-2.6,0-.6-.4-1.2-.8-1.7-.4-.4-.9-.7-1.5-.6-1,0-1.9.5-2.3,1.5-.5,1.5-.7,3.1-.6,4.7,0,1.3.1,2.6.5,3.8.3.8.9,1.5,1.6,2,.8.4,1.8.6,2.7.6.8,0,1.6,0,2.4-.3.6-.2,1.2-.5,1.7-.9.5-.4.9-.8,1.3-1.3l.9.7c-.4.7-.8,1.4-1.2,2.1-.4.7-.9,1.3-1.5,1.8-.7.6-1.4,1-2.2,1.3-1.1.4-2.2.5-3.4.5"/>
    <path id="Path_8" class="st2" d="M139.5,45.6c-1.3,0-2.5-.4-3.5-1.1-1-.8-1.7-1.9-2.1-3.1-.5-1.4-.7-2.8-.7-4.2,0-1.9.3-3.8,1.1-5.5.7-1.3,1.7-2.4,3-3.1,1.3-.7,2.7-1,4.2-1,.6,0,1.2,0,1.7.2.6.1,1.2.3,1.8.6h.1v-4.2c0-.5,0-1.1-.3-1.6-.2-.2-.6-.3-1.3-.3s-.5,0-1.1,0v-1.6l5.8-1.3h2v21.6c0,.6,0,1.3.4,1.8.4.3.9.5,1.5.4h.8v1.5l-6.5.6h-1.3v-2.3h-.1c-.7.7-1.5,1.2-2.4,1.7-1,.5-2.1.8-3.2.8M141.9,42.6c.6,0,1.2,0,1.7-.3.6-.3,1.1-.6,1.6-1v-8.8c-.2-.7-.5-1.3-1-1.9-.6-.6-1.4-.9-2.3-.9-1,0-1.8.6-2.2,1.5-.6,1.5-.9,3.2-.8,4.8,0,1.7.2,3.4.7,5,.3.9,1.2,1.5,2.2,1.5"/>
    <rect id="Rectangle_1" class="st2" x="248.8" y="43.8" width="2.5" height="2.5"/>
    <path id="Path_9" class="st2" d="M262.7,40.2v2.2c0,2.6-1.3,4.1-3.8,4.1s-3.8-1.5-3.8-4.1v-8.5c0-2.6,1.3-4.1,3.8-4.1s3.8,1.5,3.8,4.1v1.6h-2.4v-1.8c0-1.2-.5-1.6-1.3-1.6s-1.3.4-1.3,1.6v8.8c0,1.2.5,1.6,1.3,1.6s1.3-.4,1.3-1.6v-2.3h2.4Z"/>
    <path id="Path_10" class="st2" d="M266.6,33.8c0-2.6,1.4-4.1,3.9-4.1s3.9,1.5,3.9,4.1v8.5c0,2.6-1.4,4.1-3.9,4.1s-3.9-1.5-3.9-4.1v-8.5ZM269.2,42.5c0,1.2.5,1.6,1.3,1.6s1.3-.4,1.3-1.6v-8.8c0-1.2-.5-1.6-1.3-1.6s-1.3.4-1.3,1.6v8.8Z"/>
    <path id="Path_11" class="st2" d="M283.9,41.5h0l1.7-11.6h3.6v16.4h-2.4v-11.7h0l-1.7,11.7h-2.4l-1.9-11.6h0v11.6h-2.2v-16.4h3.6l1.9,11.6Z"/>
    <path id="Path_12" class="st1" d="M176.1,34.4l-9.8-14.4h-7.5v26.1h7.6v-14.3l9.8,14.3h7.6v-26.1h-7.6v14.4Z"/>
    <path id="Path_13" class="st1" d="M199.7,20.5c-4.2,0-7.5,1.2-9.9,3.6s-3.6,5.7-3.6,9.9c0,2.7.5,5.3,1.8,7.6,1.1,1.9,2.7,3.5,4.7,4.4,2.3,1,4.8,1.5,7.3,1.4,2.5,0,5-.5,7.2-1.6,1.9-1,3.4-2.6,4.4-4.6,1.1-2.3,1.6-4.9,1.5-7.5,0-4.2-1.2-7.5-3.5-9.8-2.3-2.3-5.7-3.5-10-3.5M203.8,39.8c-2.1,2.2-5.6,2.3-7.9.1,0,0-.1-.1-.2-.2-1-1.1-1.5-3-1.5-5.7,0-2.7.5-4.6,1.5-5.7,1-1.1,2.4-1.8,3.9-1.7,1.5,0,3,.6,4,1.7,1,1.1,1.5,2.9,1.5,5.4,0,2.9-.5,4.9-1.4,6.1"/>
    <path id="Path_14" class="st1" d="M242.1,19.9l-2.8,14.6-4-14.6h-7.6l-4,14.6-2.8-14.6h-7.7l5.8,26.1h7.9l4.6-16.4,4.6,16.4h7.9l5.7-26.1h-7.6Z"/>
  </g>
</svg>