<svg id="Group_30" data-name="Group 30" xmlns="http://www.w3.org/2000/svg" xmlns:xlink="http://www.w3.org/1999/xlink" width="43.494" height="43.494" viewBox="0 0 43.494 43.494">
  <defs>
    <clipPath id="clip-path">
      <rect id="Rectangle_575" data-name="Rectangle 575" width="43.494" height="43.494" fill="none"/>
    </clipPath>
  </defs>
  <g id="Group_29" data-name="Group 29" transform="translate(0 0)" clip-path="url(#clip-path)">
    <path id="Path_1162" data-name="Path 1162" d="M21.748,0A21.747,21.747,0,1,0,43.494,21.748,21.749,21.749,0,0,0,21.748,0m11.3,19.241h0c-.222.022-.445.033-.669.034a7.268,7.268,0,0,1-6.08-3.287V27.179a8.27,8.27,0,1,1-8.27-8.271c.173,0,.341.016.51.027V23.01a4.455,4.455,0,0,0-.51-.051,4.221,4.221,0,1,0,0,8.442,4.326,4.326,0,0,0,4.391-4.169l.04-19h3.9a7.264,7.264,0,0,0,6.693,6.485Z" transform="translate(0 0)" fill="#374194"/>
  </g>
</svg>
